<svg width="118" height="18" viewBox="0 0 118 18" fill="none" xmlns="http://www.w3.org/2000/svg">
<path d="M12.1048 2.18412C13.0482 2.18683 13.9521 2.54891 14.6192 3.19127C15.2862 3.83362 15.6622 4.70407 15.665 5.6125V12.4685C15.6622 13.377 15.2862 14.2474 14.6192 14.8898C13.9521 15.5321 13.0482 15.8942 12.1048 15.8969H4.98508C4.04172 15.8942 3.13779 15.5321 2.47073 14.8898C1.80366 14.2474 1.42766 13.377 1.42484 12.4685V5.6125C1.42766 4.70407 1.80366 3.83362 2.47073 3.19127C3.13779 2.54891 4.04172 2.18683 4.98508 2.18412H12.1048V2.18412ZM12.1048 0.812988H4.98508C2.24377 0.812988 0.000976562 2.97271 0.000976562 5.6125V12.4685C0.000976562 15.1083 2.24377 17.268 4.98508 17.268H12.1048C14.8461 17.268 17.0889 15.1083 17.0889 12.4685V5.6125C17.0889 2.97271 14.8461 0.812988 12.1048 0.812988V0.812988Z" fill="white"/>
<path d="M13.1733 5.61255C12.962 5.61255 12.7556 5.55223 12.5799 5.43922C12.4043 5.32622 12.2674 5.16559 12.1866 4.97767C12.1057 4.78975 12.0846 4.58296 12.1258 4.38347C12.167 4.18397 12.2687 4.00072 12.4181 3.85689C12.5674 3.71306 12.7577 3.61511 12.9649 3.57543C13.1721 3.53574 13.3868 3.55611 13.582 3.63395C13.7771 3.71179 13.9439 3.84361 14.0613 4.01273C14.1786 4.18186 14.2413 4.3807 14.2413 4.5841C14.2416 4.71924 14.2142 4.85311 14.1606 4.97802C14.107 5.10292 14.0284 5.21641 13.9291 5.31197C13.8299 5.40753 13.712 5.48327 13.5823 5.53485C13.4526 5.58643 13.3136 5.61284 13.1733 5.61255V5.61255ZM8.54542 6.29793C9.10873 6.29793 9.65938 6.45878 10.1277 6.76014C10.5961 7.06151 10.9612 7.48985 11.1767 7.991C11.3923 8.49215 11.4487 9.0436 11.3388 9.57562C11.2289 10.1076 10.9577 10.5963 10.5593 10.9799C10.161 11.3635 9.65354 11.6247 9.10106 11.7305C8.54858 11.8363 7.97592 11.782 7.45549 11.5744C6.93507 11.3668 6.49026 11.0153 6.1773 10.5643C5.86435 10.1133 5.69731 9.583 5.69731 9.04056C5.69811 8.31341 5.99844 7.61626 6.53239 7.10208C7.06634 6.58791 7.7903 6.29871 8.54542 6.29793V6.29793ZM8.54542 4.9268C7.7005 4.9268 6.87456 5.16806 6.17204 5.62009C5.46951 6.07212 4.92196 6.7146 4.59862 7.46629C4.27529 8.21798 4.19069 9.04512 4.35552 9.84311C4.52036 10.6411 4.92723 11.3741 5.52467 11.9494C6.12212 12.5247 6.88332 12.9165 7.712 13.0753C8.54068 13.234 9.39963 13.1525 10.1802 12.8412C10.9608 12.5298 11.628 12.0025 12.0974 11.326C12.5669 10.6495 12.8174 9.85418 12.8174 9.04056C12.8174 7.94952 12.3673 6.90317 11.5662 6.13169C10.765 5.36021 9.67842 4.9268 8.54542 4.9268V4.9268Z" fill="white"/>
<path fill-rule="evenodd" clip-rule="evenodd" d="M50.1768 9.08983C50.1768 4.54632 46.3511 0.862305 41.6328 0.862305C36.9146 0.862305 33.0889 4.54632 33.0889 9.08983C33.0889 13.1962 36.2128 16.6 40.2978 17.2178V11.4688H38.1279V9.08983H40.2978V7.2772C40.2978 5.21555 41.5737 4.07581 43.5251 4.07581C44.46 4.07581 45.4379 4.23669 45.4379 4.23669V6.26162H44.36C43.2993 6.26162 42.9674 6.89558 42.9674 7.54717V9.08983H45.3369L44.9585 11.4688H42.9678V17.2185C47.0529 16.6011 50.1768 13.1973 50.1768 9.08983Z" fill="white"/>
<path d="M84.4853 3.4523C83.7985 3.75071 83.0718 3.94731 82.3283 4.03588C83.1097 3.57831 83.6973 2.85138 83.981 1.99143C83.2422 2.42343 82.4353 2.72654 81.5948 2.88778C81.2409 2.51686 80.8152 2.22178 80.3437 2.02047C79.8722 1.81917 79.3646 1.71586 78.852 1.7168C76.7762 1.7168 75.0964 3.3722 75.0964 5.41283C75.095 5.69667 75.1275 5.97967 75.1933 6.25578C73.7049 6.18601 72.2474 5.8063 70.9141 5.14097C69.5808 4.47564 68.401 3.53932 67.4503 2.39193C67.1168 2.9542 66.9404 3.59573 66.9396 4.24948C66.9396 5.53107 67.6083 6.66391 68.6179 7.32759C68.0197 7.3134 67.4338 7.15508 66.9099 6.86607V6.91184C66.9099 8.70455 68.2067 10.1959 69.9231 10.5354C69.6004 10.6214 69.2678 10.665 68.9337 10.6651C68.6967 10.6655 68.4602 10.6425 68.2277 10.5964C68.7049 12.0649 70.0936 13.1329 71.7387 13.1634C70.402 14.1936 68.7608 14.7504 67.0731 14.7463C66.7735 14.7459 66.4743 14.7281 66.1768 14.6929C67.8936 15.7893 69.8894 16.3691 71.9264 16.3636C78.8439 16.3636 82.6231 10.7299 82.6231 5.84384C82.6231 5.68364 82.6189 5.52344 82.6113 5.36706C83.3448 4.84529 83.9794 4.19688 84.4853 3.4523Z" fill="white"/>
<path d="M109.167 0.36084C104.373 0.36084 100.485 4.24641 100.485 9.03849C100.485 12.5909 102.625 15.6436 105.683 16.9878C105.659 16.3835 105.679 15.6552 105.834 14.9966C106 14.2916 106.95 10.2665 106.95 10.2665C106.95 10.2665 106.671 9.71255 106.671 8.89515C106.671 7.609 107.415 6.64826 108.345 6.64826C109.136 6.64826 109.516 7.24097 109.516 7.94991C109.516 8.74407 109.008 9.9295 108.748 11.0297C108.531 11.9517 109.21 12.6994 110.12 12.6994C111.764 12.6994 112.872 10.5881 112.872 8.0855C112.872 6.18339 111.589 4.76165 109.26 4.76165C106.628 4.76165 104.985 6.72574 104.985 8.9184C104.985 9.67381 105.21 10.2084 105.559 10.6191C105.718 10.8089 105.741 10.8864 105.683 11.1033C105.64 11.2621 105.547 11.6457 105.504 11.8006C105.446 12.0214 105.268 12.0989 105.07 12.0176C103.857 11.5217 103.291 10.1968 103.291 8.70145C103.291 6.23762 105.373 3.2818 109.496 3.2818C112.81 3.2818 114.992 5.67977 114.992 8.25208C114.992 11.6573 113.097 14.1986 110.306 14.1986C109.368 14.1986 108.489 13.6911 108.186 13.1178C108.186 13.1178 107.682 15.1167 107.574 15.5041C107.392 16.1743 107.031 16.8406 106.702 17.3636C107.501 17.5992 108.33 17.7193 109.163 17.72C113.957 17.72 117.845 13.8344 117.845 9.04236C117.845 4.25029 113.961 0.36084 109.167 0.36084Z" fill="white"/>
</svg>
