<svg width="178" height="38" viewBox="0 0 178 38" fill="none" xmlns="http://www.w3.org/2000/svg">
<rect width="37.024" height="37.024" rx="10.68" fill="#F6F6F6"/>
<path d="M22.4367 19.2686L22.9311 16.0472H19.84V13.9568C19.84 13.0755 20.2718 12.2164 21.6562 12.2164H23.0614V9.47374C23.0614 9.47374 21.7862 9.2561 20.567 9.2561C18.0215 9.2561 16.3576 10.799 16.3576 13.5921V16.0472H13.528V19.2686H16.3576V27.0561H19.84V19.2686H22.4367Z" fill="#2A2F2F"/>
<rect x="46.992" y="0.000244141" width="37.024" height="37.024" rx="10.68" fill="#F6F6F6"/>
<path d="M65.4656 14.4757C63.2545 14.4757 61.4711 16.2592 61.4711 18.4703C61.4711 20.6814 63.2545 22.4649 65.4656 22.4649C67.6767 22.4649 69.4602 20.6814 69.4602 18.4703C69.4602 16.2592 67.6767 14.4757 65.4656 14.4757ZM65.4656 21.0673C64.0368 21.0673 62.8686 19.9026 62.8686 18.4703C62.8686 17.0379 64.0333 15.8733 65.4656 15.8733C66.898 15.8733 68.0626 17.0379 68.0626 18.4703C68.0626 19.9026 66.8945 21.0673 65.4656 21.0673ZM70.5553 14.3123C70.5553 14.8303 70.1381 15.244 69.6236 15.244C69.1056 15.244 68.6919 14.8268 68.6919 14.3123C68.6919 13.7978 69.1091 13.3806 69.6236 13.3806C70.1381 13.3806 70.5553 13.7978 70.5553 14.3123ZM73.201 15.2579C73.1419 14.0099 72.8568 12.9043 71.9425 11.9934C71.0316 11.0826 69.9261 10.7975 68.678 10.7349C67.3917 10.6619 63.5362 10.6619 62.2498 10.7349C61.0052 10.794 59.8997 11.0791 58.9853 11.99C58.071 12.9008 57.7894 14.0064 57.7268 15.2545C57.6538 16.5408 57.6538 20.3963 57.7268 21.6826C57.7859 22.9307 58.071 24.0363 58.9853 24.9471C59.8997 25.858 61.0017 26.1431 62.2498 26.2056C63.5362 26.2786 67.3917 26.2786 68.678 26.2056C69.9261 26.1465 71.0316 25.8615 71.9425 24.9471C72.8533 24.0363 73.1384 22.9307 73.201 21.6826C73.274 20.3963 73.274 16.5443 73.201 15.2579ZM71.5392 23.0628C71.268 23.7442 70.7431 24.2692 70.0582 24.5438C69.0326 24.9506 66.599 24.8567 65.4656 24.8567C64.3323 24.8567 61.8952 24.9471 60.8731 24.5438C60.1917 24.2727 59.6667 23.7477 59.3921 23.0628C58.9853 22.0372 59.0792 19.6036 59.0792 18.4703C59.0792 17.3369 58.9888 14.8999 59.3921 13.8777C59.6633 13.1963 60.1882 12.6714 60.8731 12.3967C61.8987 11.99 64.3323 12.0838 65.4656 12.0838C66.599 12.0838 69.0361 11.9934 70.0582 12.3967C70.7396 12.6679 71.2645 13.1929 71.5392 13.8777C71.946 14.9033 71.8521 17.3369 71.8521 18.4703C71.8521 19.6036 71.946 22.0407 71.5392 23.0628Z" fill="#2A2F2F"/>
<rect x="93.984" y="0.000244141" width="37.024" height="37.024" rx="10.68" fill="#F6F6F6"/>
<path d="M121.346 14.995C121.358 15.1531 121.358 15.3113 121.358 15.4694C121.358 20.2921 117.687 25.8489 110.978 25.8489C108.911 25.8489 106.991 25.2503 105.376 24.2113C105.67 24.2451 105.952 24.2564 106.257 24.2564C107.963 24.2564 109.532 23.6804 110.786 22.6978C109.182 22.6639 107.838 21.6135 107.375 20.1678C107.601 20.2017 107.827 20.2243 108.064 20.2243C108.392 20.2243 108.719 20.1791 109.024 20.1001C107.353 19.7612 106.099 18.293 106.099 16.5197V16.4746C106.585 16.7456 107.149 16.9151 107.748 16.9376C106.765 16.2825 106.122 15.1644 106.122 13.8994C106.122 13.2218 106.302 12.6006 106.618 12.0584C108.414 14.2721 111.114 15.7178 114.141 15.876C114.084 15.6049 114.05 15.3226 114.05 15.0402C114.05 13.0298 115.677 11.3921 117.698 11.3921C118.749 11.3921 119.697 11.8326 120.364 12.5441C121.188 12.386 121.979 12.081 122.679 11.6632C122.408 12.5103 121.832 13.2218 121.075 13.6735C121.809 13.5945 122.521 13.3912 123.176 13.1089C122.679 13.8317 122.058 14.4754 121.346 14.995Z" fill="#2A2F2F"/>
<rect x="140.976" y="0.000244141" width="37.024" height="37.024" rx="10.68" fill="#F6F6F6"/>
<path d="M155.839 15.2443V24.2722H153.428V15.2443H155.839ZM153.277 12.8913C153.277 12.5409 153.4 12.2517 153.645 12.0236C153.889 11.7955 154.217 11.6815 154.629 11.6815C155.035 11.6815 155.361 11.7955 155.605 12.0236C155.856 12.2517 155.981 12.5409 155.981 12.8913C155.981 13.2418 155.856 13.531 155.605 13.7591C155.361 13.9872 155.035 14.1012 154.629 14.1012C154.217 14.1012 153.889 13.9872 153.645 13.7591C153.4 13.531 153.277 13.2418 153.277 12.8913ZM160.519 17.1717V24.2722H158.116V15.2443H160.369L160.519 17.1717ZM160.169 19.4412H159.518C159.518 18.7737 159.604 18.1729 159.777 17.6389C159.949 17.0994 160.191 16.6405 160.503 16.2622C160.814 15.8784 161.184 15.5864 161.612 15.3861C162.046 15.1803 162.53 15.0774 163.064 15.0774C163.487 15.0774 163.874 15.1386 164.224 15.261C164.574 15.3833 164.875 15.578 165.125 15.845C165.381 16.112 165.576 16.4652 165.709 16.9047C165.848 17.3441 165.918 17.8809 165.918 18.515V24.2722H163.498V18.5067C163.498 18.1062 163.443 17.7947 163.331 17.5722C163.22 17.3497 163.056 17.1939 162.839 17.1049C162.628 17.0104 162.366 16.9631 162.055 16.9631C161.732 16.9631 161.451 17.0271 161.212 17.155C160.978 17.2829 160.784 17.4609 160.628 17.689C160.478 17.9115 160.364 18.1729 160.286 18.4733C160.208 18.7737 160.169 19.0963 160.169 19.4412Z" fill="#2A2F2F"/>
</svg>
