<svg width="25" height="26" viewBox="0 0 25 26" fill="none" xmlns="http://www.w3.org/2000/svg">
<g filter="url(#filter0_d_31_584)">
<path d="M5.5 3.33334H6.00526C6.85578 3.33334 7.56986 3.97375 7.6621 4.81926L8.3379 11.0141C8.43014 11.8596 9.14422 12.5 9.99474 12.5H17.205C17.9669 12.5 18.6317 11.9834 18.82 11.2452L19.9699 6.73592C20.2387 5.68212 19.4425 4.65741 18.355 4.65741H8.5M8.52063 15.5208H9.14563M8.52063 16.1458H9.14563M17.6873 15.5208H18.3123M17.6873 16.1458H18.3123M9.66667 15.8333C9.66667 16.2936 9.29357 16.6667 8.83333 16.6667C8.3731 16.6667 8 16.2936 8 15.8333C8 15.3731 8.3731 15 8.83333 15C9.29357 15 9.66667 15.3731 9.66667 15.8333ZM18.8333 15.8333C18.8333 16.2936 18.4602 16.6667 18 16.6667C17.5398 16.6667 17.1667 16.2936 17.1667 15.8333C17.1667 15.3731 17.5398 15 18 15C18.4602 15 18.8333 15.3731 18.8333 15.8333Z" stroke="white" stroke-width="1.5" stroke-linecap="round"/>
</g>
<defs>
<filter id="filter0_d_31_584" x="-1" y="0" width="28" height="28" filterUnits="userSpaceOnUse" color-interpolation-filters="sRGB">
<feFlood flood-opacity="0" result="BackgroundImageFix"/>
<feColorMatrix in="SourceAlpha" type="matrix" values="0 0 0 0 0 0 0 0 0 0 0 0 0 0 0 0 0 0 127 0" result="hardAlpha"/>
<feOffset dy="4"/>
<feGaussianBlur stdDeviation="2"/>
<feComposite in2="hardAlpha" operator="out"/>
<feColorMatrix type="matrix" values="0 0 0 0 0 0 0 0 0 0 0 0 0 0 0 0 0 0 0.25 0"/>
<feBlend mode="normal" in2="BackgroundImageFix" result="effect1_dropShadow_31_584"/>
<feBlend mode="normal" in="SourceGraphic" in2="effect1_dropShadow_31_584" result="shape"/>
</filter>
</defs>
</svg>
